<svg width="0" height="0" class="hidden">
  <symbol xmlns="http://www.w3.org/2000/svg" viewBox="0 0 114 114" id="flask-science">
    <path d="M108.3 99V33.8C108.6 33.6 109 33.4 109.2 33.1C109.8 32.3 110.1 31.4 110.1 30.4V19.2C110.1 18.2 109.7 17.1 109.2 16.3C108.9 16 108.6 15.8 108.3 15.6V7.6C108.3 6.5 107.5 5.7 106.4 5.7H93.1C92 5.7 91.2 6.5 91.2 7.6V15.7C90.1 16.4 89.3 17.6 89.3 19H70.3V17.1C70.3 16 69.5 15.2 68.4 15.2H64.6V11.1C66.8 10.3 68.4 8.3 68.4 5.7C68.4 2.5 65.9 0 62.7 0H36.1C32.9 0 30.4 2.5 30.4 5.7C30.4 8.3 32 10.3 34.2 11.1V15.2H30.4C29.3 15.2 28.5 16 28.5 17.1V32.3C28.5 33.4 29.3 34.2 30.4 34.2H34.2V36.1C25.6 40.7 19.8 48.6 17.8 57.7C17.7 57.9 17.6 58.1 17.6 58.3C17.3 60 17.1 61.7 17.1 63.4C17.1 63.5 17.1 63.5 17.1 63.6C17.1 63.9 17.1 64.3 17.1 64.6C17.1 82.5 31.5 96.9 49.4 96.9C49.7 96.9 50 96.9 50.2 96.9C67.7 96.5 81.7 82.2 81.7 64.6C81.7 52.6 75.2 41.8 64.6 36.1V34.2H68.4C69.5 34.2 70.3 33.4 70.3 32.3V30.4H89.3C89.3 31.8 90.1 33 91.2 33.7V98.8H7.6C3.4 98.8 0 102.2 0 106.4C0 110.6 3.4 114 7.6 114H47.5C48.1 114 48.5 113.8 48.8 113.4L52 110.2H63.8L67 113.4C67.4 113.8 67.8 114 68.3 114H106.3C110.5 114 113.9 110.6 113.9 106.4C114 102.9 111.6 99.9 108.3 99ZM93.1 28.5V20.9V19H106.4V30.4H93.1V28.5ZM95 9.5H104.5V15.2H95V9.5ZM36.1 3.8H62.7C63.8 3.8 64.6 4.6 64.6 5.7C64.6 6.8 63.8 7.6 62.7 7.6H36.1C35 7.6 34.2 6.8 34.2 5.7C34.2 4.6 35 3.8 36.1 3.8ZM32.3 19H36.1V30.4H32.3V19ZM20.9 64.6C20.9 64.4 20.9 64.2 20.9 64C20.9 62.7 21.1 61.5 21.2 60.1C21.2 60 21.2 60 21.2 59.9C28.6 55.3 39.2 56.3 46.1 62.2C54.3 70.6 67.6 77 77.3 67.9C77.5 67.7 77.5 67.7 77.7 67.5C77.4 70.9 76.5 74 75.1 77C71.3 84.9 64 90.8 55.1 92.6C54.9 92.6 54.7 92.7 54.5 92.7H54.4C54.2 92.7 54 92.8 53.8 92.8H53.7C53.5 92.8 53.3 92.9 53.2 92.9C53.1 92.9 53.1 92.9 53 92.9C52.8 92.9 52.7 92.9 52.5 93C52.4 93 52.4 93 52.3 93C52.1 93 52 93 51.8 93C51.7 93 51.6 93 51.6 93C51.4 93 51.3 93 51.1 93C51 93 50.9 93 50.9 93C50.7 93 50.6 93 50.4 93C50.3 93 50.3 93 50.2 93C50 93 49.7 93 49.5 93C33.6 93.1 20.9 80.4 20.9 64.6ZM61.9 38.9C71.1 43.5 77 52.2 77.8 62.3C76.6 63.2 75.6 64 74.7 64.9C66.9 72.1 55.9 66.4 48.7 59.2C41.6 53 31 51.4 22.6 54.9C25 48 30.1 42.3 36.9 38.9C37.7 38.5 38 37.9 38 37.2V34.2C39.1 34.2 39.9 33.4 39.9 32.3V17.1C39.9 16 39.1 15.2 38 15.2V11.4H60.8V15.2C59.7 15.2 58.9 16 58.9 17.1V32.3C58.9 33.4 59.7 34.2 60.8 34.2V37.2C60.8 38 61.2 38.8 61.9 38.9ZM66.5 30.4H62.7V19H66.5V20.9V28.5V30.4ZM70.3 26.6V22.8H89.3V26.6H70.3ZM95 34.2H104.5V98.8H95V34.2ZM106.4 110.2H69.2L66 107C65.6 106.6 65.2 106.4 64.7 106.4H51.3C50.7 106.4 50.3 106.6 50 107L46.8 110.2H7.6C5.5 110.2 3.8 108.5 3.8 106.4C3.8 104.3 5.5 102.6 7.6 102.6H93.1H106.4C108.5 102.6 110.2 104.3 110.2 106.4C110.2 108.5 108.5 110.2 106.4 110.2Z"></path>
    <path d="M18.6 57.9C21.9 53 31.4 54.5 33.7 54.8C38 55.4 41.1 57.1 42.6 57.9C47.5 60.5 48 62.6 52 65.6C53.5 66.7 62.2 73.2 70.2 71.1C76.8 69.3 79.2 62.5 80.5 63.3C82 64.1 79.8 72.8 74.9 80.3C72.8 83.5 70.1 87.6 64.9 90.8C55.7 96.3 46 94.4 43.2 93.8C40.8 93.3 33.7 91.6 27.7 85.4C23.5 81.1 21.9 76.6 20.5 72.6C17.9 65.7 16.3 61.1 18.6 57.9Z"></path>
  </symbol>
  <symbol xmlns="http://www.w3.org/2000/svg" viewBox="0 0 116 116" id="package">
    <path d="M111.6 19C111.2 18.6 110.7 18.4 110.1 18.4H86.3C86.2 8.2 78 0 67.8 0C64.2 0 60.8 1.1 58 2.9C55.2 1.1 51.8001 0 48.2001 0C43.3001 0 38.6001 1.9 35.2001 5.4C31.7001 8.9 29.8 13.4 29.8 18.3H5.90005C5.30005 18.3 4.80005 18.5 4.40005 18.9C4.00005 19.3 3.80005 19.8 3.80005 20.4L5.30005 113.8C5.30005 115 6.30005 115.9 7.40005 115.9H108.3C109.4 115.9 110.4 115 110.4 113.8L112.2 20.4C112.2 19.9 112 19.4 111.6 19ZM82 18.3H66.6C66.6 13.4 64.6 9 61.5 5.7C63.4 4.7 65.6 4.2 67.8 4.2C75.6 4.2 82 10.5 82 18.3ZM58 8.2C60.7 10.8 62.3001 14.4 62.4001 18.3H53.7001C53.7001 14.4 55.3 10.8 58 8.2ZM38.1 8.4C40.8 5.7 44.4 4.2 48.1 4.2C50.4 4.2 52.5001 4.7 54.4001 5.7C51.3001 9 49.3 13.4 49.3 18.3H34C34 14.6 35.5 11 38.1 8.4ZM8.10005 22.6H23.5L22 111.8H9.50005L8.10005 22.6ZM106.2 111.8H90.4H26.2001L27.6 22.6H49.3V37.5C49.3 38.7 50.2001 39.6 51.4001 39.6C52.6001 39.6 53.5 38.7 53.5 37.5V22.6H82V37.5C82 38.7 82.9 39.6 84.1 39.6C85.3 39.6 86.2 38.7 86.2 37.5V22.6H107.9L106.2 111.8Z"></path>
    <path d="M108.8 21.2H6.19995V113.1H108.8V21.2Z"></path>
    <path d="M66.0523 76.9405L64.9508 68.2227C66.6629 68.0063 67.8757 66.4428 67.6594 64.7306C67.4431 63.0184 65.8795 61.8057 64.1673 62.022L61.067 62.4137L48.6656 63.9807L45.5652 64.3724C43.853 64.5887 42.6403 66.1523 42.8566 67.8645C43.0729 69.5767 44.6365 70.7894 46.3487 70.5731L47.4502 79.2909C42.3068 83.2147 39.3138 89.6839 40.1815 96.5511C41.4775 106.808 50.877 114.099 61.134 112.803C71.3911 111.507 78.6817 102.107 77.3857 91.8503C76.518 84.9831 72.01 79.4616 66.0523 76.9405ZM55.1124 102.539C53.4002 102.756 51.8367 101.543 51.6203 99.8306C51.404 98.1182 52.6167 96.5548 54.329 96.3385C56.0413 96.1221 57.6047 97.3347 57.821 99.0471C58.0374 100.759 56.8248 102.323 55.1124 102.539ZM63.0592 103.11C62.2031 103.218 61.4213 102.612 61.3131 101.756C61.205 100.9 61.8114 100.118 62.6674 100.01C63.5236 99.9015 64.3053 100.508 64.4135 101.364C64.5216 102.22 63.9154 103.002 63.0592 103.11ZM67.1221 97.8719C66.266 97.98 65.4842 97.3737 65.3761 96.5176C65.2679 95.6615 65.8743 94.8797 66.7304 94.7715C67.5865 94.6633 68.3682 95.2697 68.4764 96.1258C68.5846 96.9819 67.9783 97.7637 67.1221 97.8719ZM47.7365 94.0216C47.1155 89.1067 49.8612 84.5472 54.1738 82.6463L52.5494 69.7896L58.7501 69.0062L60.3745 81.8628C65.0243 82.6312 68.818 86.3645 69.439 91.2794L47.7365 94.0216Z"></path>
  </symbol>
  <symbol xmlns="http://www.w3.org/2000/svg" viewBox="0 0 130 130" id="planet">
    <path d="M31.8038 37.9616C31.076 37.5083 30.4916 36.8345 29.6348 36.5766C31.4649 34.7299 32.2219 34.5947 35.0689 35.6158C35.7364 38.0635 36.2543 39.6253 37.9367 40.4822L37.8681 40.5154C35.6491 41.3764 34.0956 43.7181 31.3297 43.3895C31.704 42.3746 32.4319 41.4825 32.461 40.3449L34.0249 39.2822C33.8356 39.2905 33.6277 39.2905 33.4176 39.2822C32.983 39.2572 32.5047 39.2489 32.1844 39.4215C32.174 39.4215 31.0469 40.3927 29.9821 41.3951C29.6119 41.7299 29.2043 42.1292 28.0813 42.6616C28.3974 41.0665 28.8695 39.7148 31.8038 37.9616ZM99.9243 31.3713L101.546 30.4354L101.472 29.1149C100.968 29.8698 100.228 30.4812 99.9243 31.3713ZM130 64.999C130 100.837 100.844 129.998 65.001 129.998C29.1565 130 0 100.844 0 64.999C0 29.1544 29.1565 0 65.001 0C100.844 0 130 29.1585 130 64.999ZM52.9038 123.917C52.0408 122.661 52.0116 122.542 52.2404 121.451L50.5164 121.064C52.0408 120.683 52.4297 120.648 53.9228 120.671C53.7336 120.359 53.4362 119.932 53.1638 119.648C54.5592 119.051 56.121 118.855 57.3355 117.911C57.6558 117.996 58.0759 118.111 58.3899 118.206L59.4983 117.404C59.5358 114.548 59.5358 114.548 59.0262 112.937C66.8228 108.274 66.8228 108.274 65.6 105.473C70.0691 100.702 70.0691 100.702 70.2292 97.774C70.2688 97.4392 70.275 96.9816 70.2854 96.6302C70.1876 96.6302 60.0141 96.2704 53.8708 90.5077C52.987 90.5785 51.6415 90.6533 49.4516 92.3295C48.9026 91.9635 48.181 91.4665 47.6299 91.1108L49.1272 89.574C46.6982 84.8345 46.1492 84.7825 44.2775 84.5163C40.7504 84.0505 40.7504 84.0505 39.721 80.7418L38.8871 79.9058C36.6078 77.7388 33.7608 76.6428 30.7453 75.4907L28.753 75.7008C26.9978 74.6609 26.2554 74.2138 24.6832 73.2364C22.3394 75.4658 21.5824 74.9583 16.7161 71.7578C16.687 71.3585 15.3123 69.0334 12.6837 67.4779L12.2178 66.3611C12.3405 65.3005 12.4778 64.2316 12.6483 63.173C13.6237 62.0604 13.7942 61.7443 14.1727 60.3926C12.9478 60.2824 12.1887 60.7482 10.7559 62.3994C10.1569 62.1561 9.57048 61.8941 9.02353 61.6237C8.81349 60.796 8.16672 57.8637 8.60553 54.8275C9.6495 54.3304 9.6495 54.3304 11.7728 50.4394C15.616 50.5663 15.616 50.5663 17.914 52.1177C18.4796 51.8162 19.2304 51.3898 19.8064 51.08L20.3846 52.9288C21.1187 53.0016 21.2892 53.0119 22.433 52.5815C21.9547 55.1311 22.6431 57.6745 22.5204 60.2096C23.4188 59.4588 24.6333 58.4751 25.5171 57.7265L24.5813 55.6822C24.939 54.4864 25.1573 53.8188 26.245 51.9077C26.1056 52.4193 25.9725 52.9288 25.8478 53.4424C27.1309 52.5544 28.674 52.1551 29.9758 51.3108C31.0697 51.2963 31.9203 51.4689 32.8041 51.6311C35.6033 48.2953 35.6033 48.2953 36.4477 47.4822C41.1144 45.4566 41.1144 45.4566 53.2116 42.2062C52.0928 41.9608 52.0927 41.9608 51.1694 40.9272C51.6165 40.4614 52.1947 39.8395 52.6418 39.3592C52.5399 39.3425 52.5399 39.3425 47.2243 40.3054C49.8925 38.1779 52.3818 38.0282 57.0319 38.1779C58.1445 38.2278 58.1445 38.2278 62.5471 34.5718C61.3242 34.6467 60.9728 34.7382 59.3216 35.4182C59.5212 34.4512 59.5212 34.4512 59.985 33.4634C59.6917 32.9539 59.3216 32.2447 59.0429 31.7248C59.3403 30.8119 59.3403 30.8119 59.8685 29.8427C58.4939 29.1482 57.3189 29.2126 55.8569 29.5412C53.8833 26.2554 53.8833 26.2554 52.8206 26.0724C52.7998 26.636 52.7707 27.3888 52.7374 27.9482C52.0616 27.89 51.3878 27.8359 50.7493 27.7631C48.2184 30.6288 45.1925 33.0059 42.6221 35.8425C41.3015 34.3119 40.5133 29.6639 40.426 28.0688C41.2079 27.6654 42.2665 27.1413 43.0651 26.7524L45.0865 25.7188C51.5146 21.7301 51.5146 21.7301 53.8833 22.8136C54.4115 22.3124 55.1269 21.6823 55.676 21.2019L55.2288 19.9874C53.9332 20.5905 53.5048 20.6965 52.7478 20.8816C52.0428 19.4883 52.5191 17.993 52.3402 16.5435L52.151 16.4416C49.6201 21.0563 49.6201 21.0563 46.8853 20.9149C46.825 20.7423 46.7502 20.5114 46.6753 20.3347C45.4941 20.2369 45.3631 20.1828 44.1485 19.7108C43.5808 19.9645 42.8425 20.2847 42.2894 20.5343C42.3746 20.3721 42.4661 20.1537 42.5452 19.9894C42.2062 19.8917 41.7195 19.794 41.3722 19.7378C41.3223 19.3302 41.2537 18.7895 41.1934 18.3715C35.7572 21.1062 35.7094 21.0542 34.9108 20.1537C37.4417 19.6442 37.6975 19.5902 40.5757 18.2218C40.1369 18.1053 39.7189 17.9764 39.3113 17.837L39.7876 16.6558C39.2531 16.4561 38.7228 16.2794 38.2382 16.1026C36.8345 16.6558 36.3853 16.6787 35.1812 16.2523C35.5555 15.7033 36.0463 14.9858 36.4165 14.4451C35.6574 14.2621 35.2477 14.1353 32.9726 14.6614C33.0745 14.4451 33.2284 14.2185 33.3677 13.9855C30.5082 15.7636 27.813 17.7642 25.3154 19.9832C25.4214 20.0248 25.5525 20.0705 25.6627 20.0997C23.7598 21.7904 22.1211 23.2586 20.6362 24.5938C11.5628 34.551 5.80634 47.5363 5.06391 61.8566C14.6073 68.0872 19.0682 79.338 19.1264 79.4483C12.3405 90.0648 18.0138 93.1593 21.7925 95.216C22.0337 96.1664 22.302 97.1147 22.5786 98.0339C24.1238 99.6082 28.9901 103.936 33.1286 105.125C34.6155 112.494 38.8746 118.167 45.8227 121.952C48.0999 122.723 50.4665 123.414 52.9038 123.917ZM92.1631 11.413C91.8595 11.6563 91.5559 11.9038 91.1587 12.1284C93.7374 15.0773 94.014 15.3831 95.3325 17.7829C94.9623 19.4425 94.9623 19.4425 98.1504 21.9838C98.3105 21.8777 98.5102 21.7197 98.662 21.6032C98.3958 20.7132 98.3958 20.7132 97.4184 19.4612L97.5993 19.6026L97.9029 19.8875L98.2024 20.1849L98.5039 20.4761L98.793 20.7589L99.0738 21.0521L99.3483 21.3308L99.629 21.6136C99.7912 21.6136 100.02 21.6136 100.191 21.6136C100.746 20.0976 100.746 20.0976 97.0919 15.4122L98.1275 15.485L99.9202 17.9285C100.336 17.993 100.916 17.9805 101.324 17.8786C101.551 17.7206 101.694 17.6187 101.802 17.5355C98.7868 15.1938 95.5696 13.1495 92.1631 11.413ZM100.247 18.6106L100.18 18.5087L100.201 18.5961C100.286 18.9829 100.286 19.3801 100.361 19.7752L100.486 19.9021C101.415 20.84 101.569 21.2123 101.605 21.3246C101.567 21.2019 101.139 20.0435 100.247 18.6106ZM94.0244 29.3041L94.1284 29.4747L94.2137 29.6244L94.3176 29.7991L94.4133 29.9509L94.4986 30.1193L94.5984 30.2857L94.6982 30.4292L94.7793 30.5956L94.8791 30.7515L94.9686 30.9158L95.0601 31.0968L95.1599 31.2507L95.2493 31.4129L95.3491 31.5792L95.4302 31.7394L95.5301 31.8995C95.5966 30.7453 95.9065 30.2129 96.6343 29.9904L95.4302 27.5198L95.3699 27.5489C94.7356 27.7881 94.3176 28.6698 94.0244 29.3041ZM84.5829 21.3391C83.7677 21.5159 83.2082 21.7114 82.6467 22.0732C83.1126 22.3831 83.7011 22.8073 84.1649 23.1131C87.145 22.6264 87.172 22.0192 87.172 21.4909V21.283C86.2715 21.1457 85.5229 21.1748 84.5829 21.3391ZM79.5751 17.5937C79.8309 17.3067 80.068 17.2526 81.7754 17.3067C81.2742 16.6038 80.7709 15.9175 80.2489 15.25C80.5525 15.2208 80.8479 15.2915 81.5778 15.5265C81.4738 15.173 81.3033 14.6822 81.1889 14.3266C78.8743 12.3052 78.0965 9.82003 78.0965 9.80547L78.1152 9.69941C76.9569 10.6602 76.8633 10.7413 76.3039 10.3919C76.0085 10.132 75.7257 9.83875 75.4408 9.57463C75.8671 9.50809 76.2747 9.43114 76.674 9.34172L75.3035 8.63672L75.1996 8.66583L74.8294 8.77605L74.715 8.81765C74.4031 8.93411 74.2388 9.25021 73.9081 9.35627C73.7833 9.40203 73.671 9.36667 73.5671 9.35627C73.4152 9.3126 73.253 9.27309 73.1012 9.40202C72.8038 9.63494 72.8121 10.0509 72.8745 10.5853C72.3983 10.5146 72.076 10.0654 71.556 10.1029C70.9072 10.159 70.3665 10.1112 70.3665 10.1112C70.2168 10.0613 69.7364 9.90322 68.7548 9.43946C68.6903 9.89282 68.6342 10.4834 68.5946 10.9264C68.3659 10.8806 68.2245 10.8515 67.6463 10.367C66.8789 11.6293 66.2051 12.4695 64.9012 13.8337C65.444 13.8566 66.6024 14.258 66.6024 14.258C67.4093 14.8943 68.0643 16.0943 68.7215 16.8658C68.8047 17.3712 68.7652 17.7788 68.5738 18.5711C68.8712 18.9371 69.2788 19.4134 69.57 19.7898C69.1811 20.7423 68.7839 21.597 68.4158 22.3394L68.2161 22.7034C68.1142 23.816 68.9212 24.6728 69.0418 25.696C70.0088 25.933 70.5245 27.0415 71.6413 27.0124C72.496 26.9812 72.4669 26.3032 72.365 25.5774C73.7105 25.2925 78.4542 22.6451 81.5674 18.6668C81.035 18.7001 79.6021 17.9722 79.5751 17.5937ZM58.9202 20.0955C57.7452 21.4889 57.1379 22.3145 56.329 23.6683C55.4846 23.633 54.6965 23.9241 53.8812 24.0302C54.7568 24.103 55.6843 24.1695 56.6097 24.2298L57.6932 26.2512C59.7146 22.302 61.0061 23.1047 62.3703 24.4794C62.7176 24.1175 63.3664 23.4687 63.5162 22.4954L63.5474 22.1939C62.5699 22.5245 62.6573 21.0397 62.7093 20.2369C61.8421 19.6588 61.5821 19.2449 61.6133 18.5649C61.345 18.542 60.9374 18.3964 60.2179 18.0845C59.3839 17.7268 59.0762 17.7164 58.7954 17.81C58.6478 17.4731 58.4294 17.0405 58.2713 16.6974C57.8825 16.9615 57.5622 17.1632 56.8759 17.6873C56.7241 17.6249 56.7657 17.3234 57.0756 16.4936L56.984 16.5269C55.73 16.9449 55.73 16.9449 55.0063 17.5376C55.0666 17.5667 55.0666 17.5667 55.6635 18.7333C56.7179 18.2259 58.7497 18.9309 58.9202 20.0955ZM54.8691 13.8587L54.9252 13.815C54.9356 13.5093 54.9647 13.0913 54.9647 12.771L54.8857 12.8085C54.2618 13.11 53.8625 13.3221 53.8625 13.3221L53.8251 13.4095C53.6254 13.8129 53.3863 14.2164 53.1159 14.6385C53.3156 14.6531 53.8542 14.7176 54.8691 13.8587ZM54.5821 15.2957L54.5384 15.3893C54.3824 15.6992 54.0809 16.2835 54.3076 17.9764L54.3388 18.0928C54.6694 17.3275 54.6694 16.452 54.5821 15.2957ZM55.4659 10.837C55.7134 10.6373 55.7134 10.6373 55.8735 9.65574L55.7321 9.74724C53.4653 11.0782 53.4653 11.0782 52.987 11.2591C54.11 11.0844 54.11 11.0844 54.6507 10.8661C54.6195 11.099 54.6195 11.2404 54.6798 11.4193C54.7464 11.3714 54.8774 11.2883 55.4659 10.837ZM44.9263 16.452C44.8515 16.687 44.7558 16.8908 44.6435 17.1091C44.5645 17.1008 43.7597 17.2214 43.2543 17.4627C44.0362 18.9309 46.5672 19.1638 49.6325 16.7015L50.0027 16.4C48.7196 16.1775 48.5802 15.7782 48.4679 15.5058C48.2288 15.487 47.9418 15.5702 47.1474 15.8905C46.8458 15.6222 46.4382 15.2624 46.1512 15.0004C46.1325 14.2039 46.1325 14.2039 45.6105 13.7381L45.6334 13.7817C45.5648 14.3848 44.918 14.6864 44.8785 15.2936C44.8411 15.6846 45.0407 16.0673 44.9263 16.452ZM50.0402 15.2687C50.3895 15.3248 50.7264 15.3851 51.0737 15.4413C51.4169 15.0378 51.7413 14.6261 52.0699 14.2185L52.2217 14.0334C51.8141 14.31 51.3649 14.4555 50.9469 14.6801C50.9573 14.2954 50.7971 13.9356 50.8554 13.5405C50.9157 13.1974 50.9968 12.9998 51.263 12.6837L51.1465 12.6795C50.7659 12.6109 50.3667 12.6795 49.9902 12.6005C49.7511 12.5568 49.722 12.4362 49.6887 12.378C48.5865 12.7856 48.1685 12.9665 47.8087 13.1953L47.8773 13.4677C49.801 13.4968 49.801 13.4968 49.8883 13.5114C49.489 13.7422 48.9754 14.0354 48.5761 14.2538C49.1937 14.4119 49.4225 15.1169 50.0402 15.2687ZM64.296 12.8625C65.4586 12.7835 66.0159 12.247 66.5545 10.5687C66.7105 10.1341 66.1781 9.73061 66.0492 9.74516C65.9327 9.76804 65.8204 9.84083 65.6208 10.028C65.184 9.81379 64.3189 10.001 63.4933 10.2006C62.7051 10.3857 62.2975 10.4502 61.996 10.4502C62.0979 10.9888 62.2455 11.3486 62.936 12.3135C60.6047 14.1166 59.8602 14.6406 58.288 14.6032C58.5729 14.6469 58.7933 14.7508 59.5108 15.1231C61.5592 14.493 61.788 14.4098 62.3204 13.8025C62.6199 13.8316 62.8361 13.9377 63.2334 14.26C63.5682 13.8379 63.9862 13.2847 64.296 12.8625ZM55.9026 38.7373L55.9401 38.7748C55.9609 38.7893 57.7826 40.2201 58.0759 40.9314L59.49 39.3716L55.9026 38.7373ZM30.816 66.0429L28.8258 64.9532L28.5076 65.0385C27.2931 65.3858 27.1143 65.496 27.63 67.4675C28.936 67.3406 28.936 67.3406 30.4999 69.2705L32.0201 67.8689L30.816 66.0429ZM24.3962 63.119C23.2732 61.6445 23.2441 61.6071 21.4223 62.5866C21.3599 62.0958 21.1624 60.5548 19.7025 60.5548C18.8207 60.5298 18.3008 60.482 17.4627 60.3635C17.7206 60.7336 18.4297 61.7402 21.0397 62.4909L21.4181 62.5866C22.4143 64.3168 22.4143 64.3168 24.8703 64.8763L25.5275 64.2919C25.2634 64.1921 24.9847 63.8926 24.3962 63.119ZM120.521 88.0808C123.493 80.9705 125.144 73.1761 125.144 64.999C125.144 56.7948 123.482 48.9691 120.494 41.8318C120.097 41.994 119.652 42.1708 119.109 42.385C119.175 43.2273 119.109 43.5517 118.672 44.97C116.765 44.7225 113.246 41.0707 113.209 41.0353C111.699 41.8817 108.54 43.6536 103.986 44.8827L104.366 45.2757C104.346 45.4608 104.337 45.6833 104.327 45.8746L104.146 45.9121L103.957 45.9578L103.786 46.014L103.587 46.0535L103.385 46.1055L103.177 46.1554L102.977 46.2074L102.759 46.2573C100.856 51.0509 99.2256 55.1852 93.9516 62.5845L95.6361 63.9695C96.5803 70.6618 96.5803 70.6618 95.555 72.8641C104.086 80.3508 104.086 80.3508 105.957 80.8811C106.305 80.3342 106.783 79.5897 107.153 79.0302C109.809 78.423 112.248 77.7534 114.469 77.0463C121.157 74.9812 121.586 74.8751 120.521 88.0808ZM102.374 17.968C105.163 23.2586 105.2 23.3751 105.229 24.7393C104.481 24.5126 104.481 24.5126 103.532 24.0364C103.437 24.3962 103.295 24.8579 103.189 25.2031C102.468 24.9494 102.289 24.887 100.534 22.9696C100.43 23.5415 100.43 23.5415 102.11 25.5233C101.996 25.8478 101.684 26.2325 101.407 26.4467C101.418 27.0581 101.418 27.8609 101.426 28.4577C99.2256 27.6695 99.2256 27.6695 98.0111 26.9978C97.7074 26.7503 97.6305 26.6547 97.564 26.5424L97.3477 26.2408L97.1293 25.9247L96.9026 25.6232L96.6655 25.3258L96.4493 25.0201L96.2226 24.7289L95.9959 24.4274C95.6923 24.6312 95.2826 24.9431 95.0081 25.2072C95.1225 25.671 95.3117 26.455 98.1296 28.2394C98.1587 28.9485 98.1941 29.8802 98.2045 30.5706C98.4811 30.8368 98.8304 31.182 99.107 31.4524L98.9927 31.8829C99.9597 31.9993 99.9597 31.9993 102.815 36.2834C102.38 36.5225 101.933 36.7679 97.331 37.0279C98.1379 38.7165 99.1445 40.3054 99.9701 41.9982L99.5334 42.4058L99.629 42.6429L99.7143 42.8758L99.81 43.1108L99.8848 43.3375L99.9701 43.56L100.045 43.7742L100.13 43.978L100.215 44.1922C104.373 42.7635 104.552 42.7032 106.669 41.7986C106.253 40.8357 105.806 39.8853 105.35 38.9515C106.791 37.6497 106.013 35.491 107.265 34.1122C107.731 33.9375 108.176 33.7525 108.596 33.5674C111.803 36.7846 111.926 36.9093 113.662 36.2979C114.203 37.1048 114.203 37.1048 114.896 37.9741C114.376 36.9634 114.014 36.3062 111.926 33.4696C111.841 33.6173 111.755 33.8211 111.67 33.975C111.052 33.792 111.052 33.792 110.085 33.0183C110.2 32.8624 110.381 32.669 110.512 32.5276C111.755 32.6939 111.755 32.6939 118.036 37.685C118.121 37.1027 117.996 36.6078 117.788 36.1565C117.543 35.7198 117.266 35.3163 117.021 34.8879C116.624 34.3639 116.254 33.8252 116.017 33.2284C112.325 27.4054 107.733 22.2396 102.374 17.968Z"></path>
  </symbol>
  <symbol xmlns="http://www.w3.org/2000/svg" viewBox="0 0 24 24" id="icon-angle-left">
    <path clip-rule="evenodd" d="m16.726 21.6877c-.3799.401-1.0128.4181-1.4137.0383l-10.26633-9.726 10.26633-9.72595c.4009-.37984 1.0338-.36273 1.4137.0382.3798.40094.3627 1.03387-.0383 1.4137l-8.73367 8.27405 8.73367 8.274c.401.3799.4181 1.0128.0383 1.4137z" fill-rule="evenodd"></path>
  </symbol>
</svg>
