<svg width="39" height="39" viewBox="0 0 39 39" fill="none" xmlns="http://www.w3.org/2000/svg">
<path d="M19.5 35.75C28.4746 35.75 35.75 28.4746 35.75 19.5C35.75 10.5254 28.4746 3.25 19.5 3.25C10.5254 3.25 3.25 10.5254 3.25 19.5C3.25 28.4746 10.5254 35.75 19.5 35.75Z" stroke="black" stroke-width="2" stroke-linecap="round" stroke-linejoin="round"/>
<path d="M24.3746 15.2003C23.5013 14.2101 22.3472 13.5095 21.0658 13.1914C19.7844 12.8734 18.4366 12.9531 17.2017 13.4199C15.9667 13.8867 14.9032 14.7186 14.1526 15.8047C13.402 16.8908 13 18.1798 13 19.5C13 20.8202 13.402 22.1092 14.1526 23.1953C14.9032 24.2815 15.9667 25.1133 17.2017 25.5801C18.4366 26.0469 19.7844 26.1266 21.0658 25.8086C22.3472 25.4906 23.5013 24.7899 24.3746 23.7998" stroke="black" stroke-width="2" stroke-linecap="round" stroke-linejoin="round"/>
</svg>
