<svg width="116" height="116" viewBox="0 0 116 116" fill="none" xmlns="http://www.w3.org/2000/svg">
<path d="M111.6 19C111.2 18.6 110.7 18.4 110.1 18.4H86.3C86.2 8.2 78 0 67.8 0C64.2 0 60.8 1.1 58 2.9C55.2 1.1 51.8001 0 48.2001 0C43.3001 0 38.6001 1.9 35.2001 5.4C31.7001 8.9 29.8 13.4 29.8 18.3H5.90005C5.30005 18.3 4.80005 18.5 4.40005 18.9C4.00005 19.3 3.80005 19.8 3.80005 20.4L5.30005 113.8C5.30005 115 6.30005 115.9 7.40005 115.9H108.3C109.4 115.9 110.4 115 110.4 113.8L112.2 20.4C112.2 19.9 112 19.4 111.6 19ZM82 18.3H66.6C66.6 13.4 64.6 9 61.5 5.7C63.4 4.7 65.6 4.2 67.8 4.2C75.6 4.2 82 10.5 82 18.3ZM58 8.2C60.7 10.8 62.3001 14.4 62.4001 18.3H53.7001C53.7001 14.4 55.3 10.8 58 8.2ZM38.1 8.4C40.8 5.7 44.4 4.2 48.1 4.2C50.4 4.2 52.5001 4.7 54.4001 5.7C51.3001 9 49.3 13.4 49.3 18.3H34C34 14.6 35.5 11 38.1 8.4ZM8.10005 22.6H23.5L22 111.8H9.50005L8.10005 22.6ZM106.2 111.8H90.4H26.2001L27.6 22.6H49.3V37.5C49.3 38.7 50.2001 39.6 51.4001 39.6C52.6001 39.6 53.5 38.7 53.5 37.5V22.6H82V37.5C82 38.7 82.9 39.6 84.1 39.6C85.3 39.6 86.2 38.7 86.2 37.5V22.6H107.9L106.2 111.8Z" fill="#19E2CA"/>
<path d="M108.8 21.2H6.19995V113.1H108.8V21.2Z" fill="#19E2CA"/>
<g clip-path="url(#clip0_150_16)">
<path d="M66.0523 76.9405L64.9508 68.2227C66.6629 68.0063 67.8757 66.4428 67.6594 64.7306C67.4431 63.0184 65.8795 61.8057 64.1673 62.022L61.067 62.4137L48.6656 63.9807L45.5652 64.3724C43.853 64.5887 42.6403 66.1523 42.8566 67.8645C43.0729 69.5767 44.6365 70.7894 46.3487 70.5731L47.4502 79.2909C42.3068 83.2147 39.3138 89.6839 40.1815 96.5511C41.4775 106.808 50.877 114.099 61.134 112.803C71.3911 111.507 78.6817 102.107 77.3857 91.8503C76.518 84.9831 72.01 79.4616 66.0523 76.9405ZM55.1124 102.539C53.4002 102.756 51.8367 101.543 51.6203 99.8306C51.404 98.1182 52.6167 96.5548 54.329 96.3385C56.0413 96.1221 57.6047 97.3347 57.821 99.0471C58.0374 100.759 56.8248 102.323 55.1124 102.539ZM63.0592 103.11C62.2031 103.218 61.4213 102.612 61.3131 101.756C61.205 100.9 61.8114 100.118 62.6674 100.01C63.5236 99.9015 64.3053 100.508 64.4135 101.364C64.5216 102.22 63.9154 103.002 63.0592 103.11ZM67.1221 97.8719C66.266 97.98 65.4842 97.3737 65.3761 96.5176C65.2679 95.6615 65.8743 94.8797 66.7304 94.7715C67.5865 94.6633 68.3682 95.2697 68.4764 96.1258C68.5846 96.9819 67.9783 97.7637 67.1221 97.8719ZM47.7365 94.0216C47.1155 89.1067 49.8612 84.5472 54.1738 82.6463L52.5494 69.7896L58.7501 69.0062L60.3745 81.8628C65.0243 82.6312 68.818 86.3645 69.439 91.2794L47.7365 94.0216Z" fill="white"/>
</g>
<defs>
<clipPath id="clip0_150_16">
<rect width="50" height="50" fill="white" transform="translate(30.0635 66.3311) rotate(-7.20128)"/>
</clipPath>
</defs>
</svg>
