<svg width="114" height="114" viewBox="0 0 114 114" fill="none" xmlns="http://www.w3.org/2000/svg">
<g clip-path="url(#clip0_83_1089)">
<path d="M108.3 99.0422V33.7616C108.644 33.5824 108.961 33.349 109.25 33.06C109.82 32.3001 110.2 31.35 110.2 30.3999V19.1901C110.2 18.24 109.82 17.1 109.25 16.3401C108.961 16.0511 108.644 15.8177 108.3 15.6385V7.59993C108.3 6.45993 107.54 5.7 106.4 5.7H93.1002C91.9602 5.7 91.2002 6.45993 91.2002 7.59993V15.7166C90.0678 16.3764 89.3003 17.6016 89.3003 18.9999H70.3004V17.1C70.3004 15.96 69.5404 15.2001 68.4004 15.2001H64.6004V11.0936C66.8496 10.3386 68.4 8.25854 68.4 5.7C68.4 2.46993 65.9301 0 62.7 0H36.0999C32.8699 0 30.3999 2.46993 30.3999 5.7C30.3999 8.25854 31.9503 10.3386 34.2 11.0936V15.2001H30.3999C29.2599 15.2001 28.5 15.96 28.5 17.1V32.3001C28.5 33.4401 29.2599 34.2 30.3999 34.2H34.2V36.0999C25.6393 40.686 19.7879 48.5941 17.8265 57.7437C17.731 57.9098 17.67 58.1044 17.67 58.3299C17.3632 60.0177 17.1824 61.7054 17.1234 63.3931C17.1214 63.4506 17.1194 63.5082 17.1176 63.5657C17.1073 63.9104 17.1002 64.255 17.1002 64.5997C17.1002 82.4596 31.5401 96.8998 49.4003 96.8998C49.6793 96.8998 49.9576 96.8962 50.235 96.8893C67.7082 96.4478 81.7004 82.1809 81.7004 64.5999C81.7004 52.6299 75.2404 41.7999 64.6004 36.0999V34.2H68.4C69.54 34.2 70.2999 33.4401 70.2999 32.3001V30.4001H89.2999C89.2999 31.7984 90.0673 33.0235 91.1998 33.6834V98.8001H7.59993C3.42 98.7999 0 102.22 0 106.4C0 110.58 3.42 114 7.59993 114H47.4999C48.0699 114 48.45 113.81 48.8299 113.43L52.0599 110.2H63.84L67.0701 113.43C67.4501 113.81 67.83 114 68.4 114H106.4C110.58 114 114 110.58 114 106.4C114 102.875 111.568 99.8914 108.3 99.0422ZM93.0999 28.5V20.9001V19.0001H106.4V30.4001H93.0999V28.5ZM95.0001 9.50007H104.5V15.2001H95.0001V9.50007ZM36.0999 3.80007H62.7C63.84 3.80007 64.5999 4.56 64.5999 5.7C64.5999 6.84 63.84 7.59993 62.7 7.59993H36.0999C34.9599 7.59993 34.2 6.84 34.2 5.7C34.2 4.56 34.9599 3.80007 36.0999 3.80007ZM32.3001 18.9999H36.1001V30.3999H32.3001V18.9999ZM20.9001 64.5999C20.9001 64.3915 20.9065 64.1847 20.9108 63.9772C20.9506 62.7185 21.102 61.4404 21.2588 60.0393C21.269 59.9742 21.2788 59.909 21.2895 59.8442C28.6991 55.2907 39.3329 56.2423 46.17 62.1298C54.3399 70.4899 67.6401 76.9498 77.3301 67.8298C77.52 67.6399 77.52 67.6399 77.7102 67.4497C77.4009 70.8085 76.5049 73.992 75.1264 76.901C71.3415 84.8233 64.0086 90.7099 55.1682 92.5186C55.1568 92.5208 55.1457 92.5232 55.1344 92.5255C54.9248 92.568 54.7144 92.6081 54.5031 92.6459C54.4713 92.6517 54.4395 92.6575 54.4076 92.6631C54.2168 92.6967 54.0251 92.7281 53.8329 92.7579C53.7846 92.7655 53.7363 92.7731 53.6878 92.7804C53.5108 92.8069 53.3331 92.8314 53.1549 92.8548C53.0942 92.8628 53.0336 92.871 52.9726 92.8786C52.8056 92.8993 52.6382 92.918 52.4703 92.9358C52.3997 92.9434 52.3296 92.9514 52.2588 92.9583C52.0987 92.9741 51.9379 92.9877 51.7772 93.0008C51.6999 93.0071 51.6229 93.0144 51.5454 93.02C51.3871 93.0318 51.2283 93.0409 51.0693 93.05C50.9901 93.0545 50.9112 93.0603 50.8318 93.0641C50.6659 93.0723 50.4991 93.0777 50.3326 93.083C50.2604 93.0852 50.1887 93.0888 50.1166 93.0906C49.8786 93.0964 49.6397 93.0997 49.4001 93.0997C33.63 93.0999 20.9001 80.37 20.9001 64.5999ZM61.9401 38.9499C71.1511 43.5556 77.0569 52.2902 77.8148 62.3816C76.6427 63.2571 75.5931 64.0569 74.67 64.9798C66.8799 72.1999 55.86 66.4999 48.6399 59.2798C41.5094 53.1216 30.9247 51.5289 22.5419 54.9654C24.9749 48.1004 30 42.3797 36.8599 38.9497C37.6198 38.5696 37.9999 37.9996 37.9999 37.2397V34.2C39.1399 34.2 39.8998 33.4401 39.8998 32.3001V17.1C39.8998 15.96 39.1399 15.2001 37.9999 15.2001V11.4H60.7999V15.2001C59.6599 15.2001 58.8999 15.96 58.8999 17.1V32.3001C58.8999 33.4401 59.6599 34.2 60.7999 34.2V37.2399C60.8001 38.0001 61.1799 38.76 61.9401 38.9499ZM66.5001 30.3999H62.7V18.9999H66.5001V20.8999V28.5V30.3999ZM70.2999 26.6001V22.8H89.2999V26.6001H70.2999ZM95.0001 34.2H104.5V98.7999H95.0001V34.2ZM106.4 110.2H69.1599L65.9298 106.97C65.5498 106.59 65.1699 106.4 64.5999 106.4H51.3C50.73 106.4 50.3499 106.59 49.9701 106.97L46.74 110.2H7.59993C5.50985 110.2 3.79985 108.49 3.79985 106.4C3.79985 104.31 5.50985 102.6 7.59993 102.6H93.0999H106.4C108.49 102.6 110.2 104.31 110.2 106.4C110.2 108.49 108.49 110.2 106.4 110.2Z" fill="#19E2CA"/>
</g>
<defs>
<clipPath id="clip0_83_1089">
<rect width="114" height="114" fill="white"/>
</clipPath>
</defs>
</svg>
