<svg width="142" height="142" viewBox="0 0 142 142" fill="none" xmlns="http://www.w3.org/2000/svg">
<g clip-path="url(#clip0_150_25)">
<path d="M132.811 47.056C132.527 46.5668 132.096 46.2452 131.516 46.0913L108.512 39.9855C111.032 30.1012 105.21 20.072 95.3517 17.4553C91.8722 16.5317 88.3038 16.7226 85.1357 17.7441C82.8912 15.286 79.8872 13.3505 76.4077 12.427C71.6717 11.1699 66.6415 11.8006 62.4574 14.3112C58.1767 16.7961 55.1858 20.6581 53.9287 25.3941L30.8286 19.2627C30.2487 19.1087 29.7141 19.1738 29.2249 19.4578C28.7356 19.7418 28.4141 20.1737 28.2601 20.7536L5.74864 111.413C5.44078 112.572 6.17643 113.699 7.23961 113.981L104.763 139.866C105.826 140.149 107.023 139.535 107.331 138.375L133.032 48.5631C133.161 48.0798 133.095 47.5453 132.811 47.056ZM104.382 38.7857L89.4971 34.8349C90.7542 30.0989 89.9499 25.3331 87.8003 21.3483C89.8932 20.8692 92.1479 20.9503 94.2742 21.5147C101.813 23.5157 106.383 31.2468 104.382 38.7857ZM83.776 22.8667C85.7187 26.0723 86.3415 29.9623 85.4377 33.7574L77.0288 31.5255C78.0294 27.756 80.4994 24.687 83.776 22.8667ZM64.4907 17.9547C67.793 16.0378 71.6574 15.5115 75.2335 16.4608C77.4566 17.0508 79.358 18.0728 80.9379 19.5268C77.095 21.9211 74.0332 25.6607 72.7761 30.3967L57.9882 26.4716C58.9374 22.8954 61.3107 19.8007 64.4907 17.9547ZM31.8518 23.9832L46.7364 27.9339L22.4028 113.764L10.3212 110.557L31.8518 23.9832ZM103.785 135.365L88.5136 131.311L26.4623 114.841L50.6992 28.9858L71.673 34.5528L67.8504 48.9541C67.5426 50.114 68.1816 51.2147 69.3414 51.5226C70.5013 51.8304 71.602 51.1915 71.9099 50.0316L75.7324 35.6303L103.279 42.9418L99.456 57.3431C99.1482 58.503 99.7872 59.6038 100.947 59.9116C102.107 60.2195 103.208 59.5805 103.515 58.4206L107.338 44.0193L128.312 49.5863L103.785 135.365Z" fill="#19E2CA"/>
<path d="M129.541 48.4641L30.3745 22.1426L6.79804 110.967L105.964 137.288L129.541 48.4641Z" fill="#19E2CA"/>
<g clip-path="url(#clip1_150_25)">
<path d="M104.405 104.612L110.029 97.861C111.355 98.9657 113.326 98.7862 114.43 97.4603C115.535 96.1343 115.356 94.1637 114.03 93.0591L111.629 91.0588L102.025 83.058L99.6236 81.0578C98.2977 79.9532 96.327 80.1326 95.2224 81.4586C94.1178 82.7845 94.2973 84.7551 95.6232 85.8598L89.9989 92.611C83.6214 91.5256 76.8489 93.7489 72.4185 99.0671C65.8011 107.01 66.8799 118.857 74.8232 125.474C82.7665 132.092 94.613 131.013 101.23 123.07C105.661 117.752 106.624 110.689 104.405 104.612ZM78.2224 114.071C76.8964 112.966 76.717 110.995 77.8217 109.669C78.9264 108.343 80.8968 108.164 82.2229 109.269C83.549 110.373 83.7284 112.344 82.6236 113.67C81.519 114.996 79.5485 115.175 78.2224 114.071ZM83.2248 120.272C82.5618 119.719 82.4721 118.734 83.0244 118.071C83.5767 117.408 84.5621 117.318 85.225 117.871C85.8881 118.423 85.9777 119.408 85.4254 120.071C84.8731 120.734 83.8879 120.824 83.2248 120.272ZM89.8266 119.67C89.1637 119.118 89.0739 118.133 89.6262 117.47C90.1785 116.807 91.1639 116.717 91.8268 117.269C92.4899 117.822 92.5795 118.807 92.0272 119.47C91.4749 120.133 90.4897 120.223 89.8266 119.67ZM79.4211 102.867C82.592 99.0608 87.7991 97.9592 92.1306 99.8167L100.425 89.8602L105.227 93.8606L96.9326 103.817C99.5419 107.742 99.399 113.062 96.228 116.869L79.4211 102.867Z" fill="white"/>
</g>
</g>
<defs>
<clipPath id="clip0_150_25">
<rect width="116" height="116" fill="white" transform="translate(29.8208 0.0615234) rotate(14.8651)"/>
</clipPath>
<clipPath id="clip1_150_25">
<rect width="50" height="50" fill="white" transform="translate(87.6187 71.0566) rotate(39.7969)"/>
</clipPath>
</defs>
</svg>
