<svg width="19" height="19" viewBox="0 0 19 19" fill="none" xmlns="http://www.w3.org/2000/svg">
<g clip-path="url(#clip0_79_904)">
<path d="M16.9611 1.98221C16.0219 1.2662 14.9855 0.903076 13.8806 0.903076C12.4866 0.903076 10.9808 1.49805 9.49997 2.62944C8.01909 1.49805 6.5133 0.903076 5.11929 0.903076C4.01446 0.903076 2.97807 1.2662 2.03885 1.98221C0.664679 3.02997 -0.0210085 4.35214 0.000490244 5.91193C0.074425 11.2531 8.74795 17.5556 9.1171 17.8213L9.49997 18.0968L9.88284 17.8213C10.2521 17.5556 18.9256 11.2531 18.9994 5.91193C19.0209 4.35214 18.3353 3.02997 16.9611 1.98221ZM13.4439 13.023C11.8382 14.6381 10.2178 15.9234 9.49997 16.471C8.78212 15.9234 7.16176 14.6382 5.55599 13.023C2.80494 10.2561 1.33717 7.79054 1.3113 5.89306C1.29575 4.75581 1.7938 3.81755 2.83378 3.02464C3.53931 2.48664 4.30828 2.21389 5.11929 2.21389C6.65418 2.21389 8.1202 3.16962 9.07969 3.97137L9.49997 4.32251L9.92024 3.97137C10.8797 3.16962 12.3458 2.21389 13.8806 2.21389C14.6917 2.21389 15.4606 2.48664 16.1662 3.02464C17.2061 3.81755 17.7042 4.75581 17.6886 5.89306C17.6628 7.79063 16.1949 10.2561 13.4439 13.023Z" fill="white"/>
</g>
<defs>
<clipPath id="clip0_79_904">
<rect width="19" height="19" fill="white"/>
</clipPath>
</defs>
</svg>
