<svg width="142" height="142" viewBox="0 0 142 142" fill="none" xmlns="http://www.w3.org/2000/svg">
<g clip-path="url(#clip0_84_1423)">
<path d="M132.693 46.7537C132.407 46.2659 131.974 45.9464 131.393 45.7953L108.36 39.8022C110.832 29.9057 104.961 19.9051 95.0893 17.3366C91.6053 16.4301 88.0379 16.6385 84.8748 17.6754C82.6183 15.2284 79.6049 13.3076 76.1209 12.4011C71.3788 11.1673 66.3518 11.8225 62.18 14.3536C57.9115 16.8595 54.9395 20.736 53.7056 25.4781L30.5758 19.4598C29.9951 19.3087 29.4609 19.3764 28.973 19.6628C28.4852 19.9491 28.1657 20.3827 28.0147 20.9633L5.94714 111.731C5.64497 112.893 6.38612 114.016 7.45067 114.293L105.099 139.7C106.164 139.977 107.358 139.358 107.66 138.197L132.922 48.2597C133.048 47.7758 132.98 47.2416 132.693 46.7537ZM104.224 38.6227L89.3198 34.7448C90.5537 30.0027 89.7261 25.2408 87.557 21.2665C89.6476 20.7772 91.9026 20.8473 94.0317 21.4013C101.58 23.3654 106.188 31.074 104.224 38.6227ZM83.5402 22.8046C85.4985 26.0008 86.1404 29.8876 85.2552 33.6872L76.8355 31.4964C77.8176 27.7221 80.2725 24.641 83.5402 22.8046ZM64.2311 17.9872C67.524 16.054 71.3857 15.5089 74.9665 16.4406C77.1924 17.0198 79.0988 18.0325 80.6858 19.4787C76.8547 21.8917 73.8112 25.6463 72.5773 30.3884L57.7703 26.5357C58.702 22.9549 61.0602 19.8487 64.2311 17.9872ZM31.6221 24.1752L46.5259 28.0531L22.6126 114.001L10.5154 110.853L31.6221 24.1752ZM104.099 135.204L88.8085 131.225L26.6773 115.059L50.4938 29.0856L71.4945 34.5499L67.7425 48.9697C67.4403 50.1311 68.0847 51.2287 69.246 51.5309C70.4074 51.833 71.505 51.1887 71.8072 50.0273L75.5592 35.6075L103.141 42.7841L99.3888 57.204C99.0866 58.3653 99.731 59.4629 100.892 59.7651C102.054 60.0673 103.151 59.4229 103.453 58.2616L107.205 43.8417L128.206 49.306L104.099 135.204Z" fill="#19E2CA"/>
<path d="M129.43 48.1776L30.136 22.3418L6.99452 111.28L106.288 137.116L129.43 48.1776Z" fill="#19E2CA"/>
<g clip-path="url(#clip1_84_1423)">
<path d="M82.3101 98.6566L87.9013 91.8779C89.2326 92.976 91.2024 92.7869 92.3005 91.4555C93.3986 90.1242 93.2095 88.1545 91.8782 87.0564L89.4674 85.0679L79.8244 77.1142L77.4137 75.1257C76.0823 74.0276 74.1126 74.2167 73.0145 75.548C71.9163 76.8794 72.1054 78.8491 73.4368 79.9472L67.8455 86.726C61.4628 85.6717 54.7013 87.9282 50.297 93.2679C43.7186 101.244 44.8553 113.085 52.8309 119.663C60.8065 126.242 72.6476 125.105 79.226 117.129C83.6304 111.789 84.5593 104.722 82.3101 98.6566ZM56.1743 108.243C54.8429 107.145 54.6539 105.175 55.752 103.844C56.8502 102.512 58.8198 102.323 60.1512 103.421C61.4827 104.52 61.6717 106.489 60.5735 107.82C59.4754 109.152 57.5058 109.341 56.1743 108.243ZM61.207 114.419C60.5413 113.87 60.4467 112.885 60.9958 112.22C61.5449 111.554 62.5297 111.459 63.1954 112.009C63.8611 112.558 63.9556 113.542 63.4066 114.208C62.8575 114.874 61.8727 114.968 61.207 114.419ZM67.8058 113.786C67.1401 113.237 67.0455 112.252 67.5946 111.586C68.1437 110.921 69.1285 110.826 69.7942 111.375C70.4599 111.924 70.5544 112.909 70.0053 113.575C69.4563 114.24 68.4715 114.335 67.8058 113.786ZM57.3181 97.0337C60.4703 93.2119 65.672 92.0849 70.0125 93.9211L78.2583 83.9241L83.0798 87.901L74.834 97.898C77.4625 101.81 77.3456 107.131 74.1934 110.953L57.3181 97.0337Z" fill="white"/>
</g>
</g>
<defs>
<clipPath id="clip0_84_1423">
<rect width="116" height="116" fill="white" transform="translate(29.4741 0.263916) rotate(14.5847)"/>
</clipPath>
<clipPath id="clip1_84_1423">
<rect width="50" height="50" fill="white" transform="translate(65.3599 65.1836) rotate(39.5165)"/>
</clipPath>
</defs>
</svg>
