<svg width="116" height="116" viewBox="0 0 116 116" fill="none" xmlns="http://www.w3.org/2000/svg">
<g clip-path="url(#clip0_150_9)">
<path d="M111.6 19C111.2 18.6 110.7 18.4 110.1 18.4H86.3C86.2 8.2 78 0 67.8 0C64.2 0 60.8 1.1 58 2.9C55.2 1.1 51.8001 0 48.2001 0C43.3001 0 38.6001 1.9 35.2001 5.4C31.7001 8.9 29.8 13.4 29.8 18.3H5.90005C5.30005 18.3 4.80005 18.5 4.40005 18.9C4.00005 19.3 3.80005 19.8 3.80005 20.4L5.30005 113.8C5.30005 115 6.30005 115.9 7.40005 115.9H108.3C109.4 115.9 110.4 115 110.4 113.8L112.2 20.4C112.2 19.9 112 19.4 111.6 19ZM82 18.3H66.6C66.6 13.4 64.6 9 61.5 5.7C63.4 4.7 65.6 4.2 67.8 4.2C75.6 4.2 82 10.5 82 18.3ZM58 8.2C60.7 10.8 62.3001 14.4 62.4001 18.3H53.7001C53.7001 14.4 55.3 10.8 58 8.2ZM38.1 8.4C40.8 5.7 44.4 4.2 48.1 4.2C50.4 4.2 52.5001 4.7 54.4001 5.7C51.3001 9 49.3 13.4 49.3 18.3H34C34 14.6 35.5 11 38.1 8.4ZM8.10005 22.6H23.5L22 111.8H9.50005L8.10005 22.6ZM106.2 111.8H90.4H26.2001L27.6 22.6H49.3V37.5C49.3 38.7 50.2001 39.6 51.4001 39.6C52.6001 39.6 53.5 38.7 53.5 37.5V22.6H82V37.5C82 38.7 82.9 39.6 84.1 39.6C85.3 39.6 86.2 38.7 86.2 37.5V22.6H107.9L106.2 111.8Z" fill="#19E2CA"/>
<path d="M108.8 21.2H6.19995V113.1H108.8V21.2Z" fill="#19E2CA"/>
<g clip-path="url(#clip1_150_9)">
<path d="M68.795 79.5965L70.1456 70.9138C71.8509 71.1791 73.4485 70.0115 73.7138 68.3063C73.979 66.601 72.8115 65.0033 71.1062 64.7381L68.0184 64.2578L55.6669 62.3365L52.579 61.8562C50.8738 61.591 49.2761 62.7585 49.0109 64.4638C48.7456 66.169 49.9131 67.7667 51.6184 68.0319L50.2678 76.7146C44.2404 79.0642 39.5762 84.4544 38.5123 91.294C36.9233 101.51 43.9419 111.114 54.1577 112.703C64.3734 114.292 73.9777 107.273 75.5667 97.0577C76.6306 90.2182 73.8241 83.6659 68.795 79.5965ZM51.207 101.175C49.5016 100.91 48.3342 99.3121 48.5994 97.6068C48.8647 95.9014 50.4622 94.734 52.1676 94.9993C53.873 95.2646 55.0404 96.862 54.7751 98.5675C54.5099 100.273 52.9124 101.44 51.207 101.175ZM58.6865 103.92C57.8338 103.787 57.2501 102.988 57.3827 102.136C57.5153 101.283 58.3141 100.699 59.1668 100.832C60.0195 100.965 60.6032 101.763 60.4706 102.616C60.3379 103.469 59.5392 104.052 58.6865 103.92ZM64.0387 100.008C63.1861 99.8758 62.6023 99.0769 62.735 98.2243C62.8676 97.3717 63.6664 96.7879 64.5191 96.9205C65.3718 97.0532 65.9555 97.852 65.8228 98.7046C65.6902 99.5573 64.8915 100.141 64.0387 100.008ZM46.4722 90.9508C47.2336 86.0557 51.1324 82.4326 55.8024 81.7975L57.7941 68.9926L63.9699 69.9532L61.9781 82.7581C66.2345 84.7816 68.8487 89.4178 68.0872 94.313L46.4722 90.9508Z" fill="white"/>
</g>
</g>
<defs>
<clipPath id="clip0_150_9">
<rect width="116" height="116" fill="white"/>
</clipPath>
<clipPath id="clip1_150_9">
<rect width="50" height="50" fill="white" transform="translate(37.1396 59.4546) rotate(8.84136)"/>
</clipPath>
</defs>
</svg>
