<svg width="116" height="116" viewBox="0 0 116 116" fill="none" xmlns="http://www.w3.org/2000/svg">
<g clip-path="url(#clip0_83_1096)">
<path d="M111.596 18.9646C111.199 18.5602 110.657 18.3325 110.09 18.3325H86.2637C86.2108 8.21541 77.9664 0.000281224 67.837 0.000281224C64.2218 0.000281224 60.8497 1.05065 58.0009 2.8564C55.1518 1.05065 51.7791 0 48.1637 0C43.2405 0 38.6127 1.91654 35.1328 5.39641C31.6741 8.85519 29.7612 13.4462 29.7359 18.3327H5.90997C5.34471 18.3327 4.80307 18.5597 4.40654 18.9627C4.01002 19.3657 3.79179 19.911 3.80107 20.4762L5.31433 113.925C5.33289 115.076 6.27162 116 7.42324 116H108.301C109.45 116 110.388 115.08 110.41 113.932L112.199 20.4827C112.21 19.916 111.992 19.369 111.596 18.9646ZM82.0453 18.3327H66.5914C66.5659 13.4467 64.6277 9.00762 61.4909 5.7201C63.4024 4.76169 65.5568 4.21893 67.8367 4.21893C75.6401 4.21893 81.9924 10.5414 82.0453 18.3327ZM58.0006 8.18757C60.672 10.7543 62.3458 14.3503 62.3728 18.3325H53.6281C53.6554 14.3503 55.3293 10.7543 58.0006 8.18757ZM38.1158 8.37908C40.7989 5.69592 44.3674 4.21837 48.1637 4.21837C50.4441 4.21837 52.5988 4.76141 54.5106 5.71982C51.3738 9.00734 49.4353 13.4465 49.41 18.3325H33.9545C33.9795 14.5728 35.4537 11.0412 38.1158 8.37908ZM8.05374 22.5511H23.4401L21.9952 111.782H9.49867L8.05374 22.5511ZM106.232 111.782H90.4165H26.2138L27.6587 22.5511H49.4075V37.4327C49.4075 38.5975 50.3519 39.5418 51.5167 39.5418C52.6815 39.5418 53.6259 38.5975 53.6259 37.4327V22.5511H82.0475V37.4327C82.0475 38.5975 82.9919 39.5418 84.1567 39.5418C85.3216 39.5418 86.2659 38.5975 86.2659 37.4327V22.5511H107.94L106.232 111.782Z" fill="#19E2CA"/>
</g>
<defs>
<clipPath id="clip0_83_1096">
<rect width="116" height="116" fill="white"/>
</clipPath>
</defs>
</svg>
