<svg width="50" height="50" viewBox="0 0 50 50" fill="none" xmlns="http://www.w3.org/2000/svg">
<g clip-path="url(#clip0_84_1430)">
<path d="M34.375 15.0371V6.25C36.1008 6.25 37.5 4.85078 37.5 3.125C37.5 1.39922 36.1008 0 34.375 0H31.25H18.75H15.625C13.8992 0 12.5 1.39922 12.5 3.125C12.5 4.85078 13.8992 6.25 15.625 6.25V15.0371C10.0303 18.2852 6.25 24.3282 6.25 31.25C6.25 41.5886 14.6614 50 25 50C35.3386 50 43.75 41.5886 43.75 31.25C43.75 24.3282 39.9697 18.2852 34.375 15.0371ZM20.3125 39.0625C18.5866 39.0625 17.1875 37.6633 17.1875 35.9375C17.1875 34.2115 18.5866 32.8125 20.3125 32.8125C22.0385 32.8125 23.4375 34.2115 23.4375 35.9375C23.4375 37.6633 22.0385 39.0625 20.3125 39.0625ZM28.125 40.625C27.2621 40.625 26.5625 39.9254 26.5625 39.0625C26.5625 38.1996 27.2621 37.5 28.125 37.5C28.988 37.5 29.6875 38.1996 29.6875 39.0625C29.6875 39.9254 28.988 40.625 28.125 40.625ZM32.8125 35.9375C31.9496 35.9375 31.25 35.2379 31.25 34.375C31.25 33.5121 31.9496 32.8125 32.8125 32.8125C33.6755 32.8125 34.375 33.5121 34.375 34.375C34.375 35.2379 33.6755 35.9375 32.8125 35.9375ZM14.0625 29.6875C14.0625 24.7335 17.3581 20.5542 21.875 19.2089V6.25H28.125V19.2089C32.6418 20.5541 35.9375 24.7335 35.9375 29.6875H14.0625Z" fill="white"/>
</g>
<defs>
<clipPath id="clip0_84_1430">
<rect width="50" height="50" fill="white"/>
</clipPath>
</defs>
</svg>
