<svg width="116" height="116" viewBox="0 0 116 116" fill="none" xmlns="http://www.w3.org/2000/svg">
<g clip-path="url(#clip0_84_1423)">
<path d="M111.6 19C111.2 18.6 110.7 18.4 110.1 18.4H86.3C86.2001 8.2 78 0 67.8 0C64.2001 0 60.8 1.1 58 2.9C55.2001 1.1 51.8 0 48.2001 0C43.3 0 38.6001 1.9 35.2001 5.4C31.7001 8.9 29.8 13.4 29.8 18.3H5.90005C5.30005 18.3 4.80005 18.5 4.40005 18.9C4.00005 19.3 3.80005 19.8 3.80005 20.4L5.30005 113.8C5.30005 115 6.30005 115.9 7.40005 115.9H108.3C109.4 115.9 110.4 115 110.4 113.8L112.2 20.4C112.2 19.9 112 19.4 111.6 19ZM82 18.3H66.6C66.6 13.4 64.6 9 61.5 5.7C63.4001 4.7 65.6 4.2 67.8 4.2C75.6001 4.2 82 10.5 82 18.3ZM58 8.2C60.7001 10.8 62.3001 14.4 62.4001 18.3H53.7001C53.7001 14.4 55.3 10.8 58 8.2ZM38.1 8.4C40.8 5.7 44.4 4.2 48.1 4.2C50.4 4.2 52.5 4.7 54.4001 5.7C51.3001 9 49.3 13.4 49.3 18.3H34C34 14.6 35.5 11 38.1 8.4ZM8.10005 22.6H23.5L22 111.8H9.50005L8.10005 22.6ZM106.2 111.8H90.4H26.2001L27.6 22.6H49.3V37.5C49.3 38.7 50.2001 39.6 51.4001 39.6C52.6001 39.6 53.5 38.7 53.5 37.5V22.6H82V37.5C82 38.7 82.9 39.6 84.1 39.6C85.3 39.6 86.2 38.7 86.2 37.5V22.6H107.9L106.2 111.8Z" fill="#19E2CA"/>
<path d="M108.8 21.2H6.20007V113.1H108.8V21.2Z" fill="#19E2CA"/>
<g clip-path="url(#clip1_84_1423)">
<path d="M98.9097 81.9174L102.614 73.9491C104.179 74.6766 106.037 73.9976 106.765 72.4327C107.492 70.8677 106.813 69.0091 105.248 68.2816L102.415 66.9643L91.0795 61.695L88.2457 60.3777C86.6808 59.6502 84.8221 60.3292 84.0946 61.8942C83.3672 63.4591 84.0462 65.3178 85.6111 66.0453L81.907 74.0135C75.4645 74.6005 69.4891 78.4869 66.5713 84.7636C62.2132 94.1387 66.295 105.312 75.6701 109.67C85.0453 114.028 96.2186 109.946 100.577 100.571C103.494 94.2946 102.614 87.2211 98.9097 81.9174ZM76.03 97.776C74.465 97.0484 73.7861 95.1898 74.5136 93.6249C75.2411 92.0597 77.0996 91.3809 78.6647 92.1084C80.2298 92.836 80.9087 94.6943 80.1811 96.2595C79.4536 97.8244 77.5952 98.5035 76.03 97.776ZM82.4558 102.486C81.6734 102.122 81.3339 101.193 81.6976 100.411C82.0613 99.6281 82.9907 99.2886 83.7731 99.6523C84.5557 100.016 84.8951 100.945 84.5314 101.728C84.1676 102.51 83.2384 102.85 82.4558 102.486ZM88.6825 100.211C87.9 99.8477 87.5605 98.9183 87.9242 98.1359C88.288 97.3534 89.2173 97.0139 89.9998 97.3776C90.7823 97.7414 91.1218 98.6707 90.758 99.4532C90.3943 100.236 89.465 100.575 88.6825 100.211ZM74.3144 86.64C76.4027 82.1476 81.1529 79.747 85.816 80.4311L91.2787 68.6799L96.9462 71.3145L91.4836 83.0658C95.0124 86.1896 96.2392 91.3688 94.1509 95.8612L74.3144 86.64Z" fill="white"/>
</g>
</g>
<defs>
<clipPath id="clip0_84_1423">
<rect width="116" height="116" fill="white"/>
</clipPath>
<clipPath id="clip1_84_1423">
<rect width="50" height="50" fill="white" transform="translate(74.0769 53.7913) rotate(24.9318)"/>
</clipPath>
</defs>
</svg>
