<svg width="116" height="116" viewBox="0 0 116 116" fill="none" xmlns="http://www.w3.org/2000/svg">
<path d="M111.6 19C111.2 18.6 110.7 18.4 110.1 18.4H86.3C86.2001 8.2 78 0 67.8 0C64.2001 0 60.8 1.1 58 2.9C55.2001 1.1 51.8 0 48.2001 0C43.3 0 38.6001 1.9 35.2001 5.4C31.7001 8.9 29.8 13.4 29.8 18.3H5.90005C5.30005 18.3 4.80005 18.5 4.40005 18.9C4.00005 19.3 3.80005 19.8 3.80005 20.4L5.30005 113.8C5.30005 115 6.30005 115.9 7.40005 115.9H108.3C109.4 115.9 110.4 115 110.4 113.8L112.2 20.4C112.2 19.9 112 19.4 111.6 19ZM82 18.3H66.6C66.6 13.4 64.6 9 61.5 5.7C63.4001 4.7 65.6 4.2 67.8 4.2C75.6001 4.2 82 10.5 82 18.3ZM58 8.2C60.7001 10.8 62.3001 14.4 62.4001 18.3H53.7001C53.7001 14.4 55.3 10.8 58 8.2ZM38.1 8.4C40.8 5.7 44.4 4.2 48.1 4.2C50.4 4.2 52.5 4.7 54.4001 5.7C51.3001 9 49.3 13.4 49.3 18.3H34C34 14.6 35.5 11 38.1 8.4ZM8.10005 22.6H23.5L22 111.8H9.50005L8.10005 22.6ZM106.2 111.8H90.4H26.2001L27.6 22.6H49.3V37.5C49.3 38.7 50.2001 39.6 51.4001 39.6C52.6001 39.6 53.5 38.7 53.5 37.5V22.6H82V37.5C82 38.7 82.9 39.6 84.1 39.6C85.3 39.6 86.2 38.7 86.2 37.5V22.6H107.9L106.2 111.8Z" fill="#19E2CA"/>
<path d="M108.8 21.2H6.19995V113.1H108.8V21.2Z" fill="#19E2CA"/>
<g clip-path="url(#clip0_84_1202)">
<path d="M67.375 78.0371V69.25C69.1008 69.25 70.5 67.8508 70.5 66.125C70.5 64.3992 69.1008 63 67.375 63H64.25H51.75H48.625C46.8992 63 45.5 64.3992 45.5 66.125C45.5 67.8508 46.8992 69.25 48.625 69.25V78.0371C43.0303 81.2852 39.25 87.3282 39.25 94.25C39.25 104.589 47.6614 113 58 113C68.3386 113 76.75 104.589 76.75 94.25C76.75 87.3282 72.9697 81.2852 67.375 78.0371ZM53.3125 102.062C51.5866 102.062 50.1875 100.663 50.1875 98.9375C50.1875 97.2115 51.5866 95.8125 53.3125 95.8125C55.0385 95.8125 56.4375 97.2115 56.4375 98.9375C56.4375 100.663 55.0385 102.062 53.3125 102.062ZM61.125 103.625C60.2621 103.625 59.5625 102.925 59.5625 102.062C59.5625 101.2 60.2621 100.5 61.125 100.5C61.988 100.5 62.6875 101.2 62.6875 102.062C62.6875 102.925 61.988 103.625 61.125 103.625ZM65.8125 98.9375C64.9496 98.9375 64.25 98.2379 64.25 97.375C64.25 96.5121 64.9496 95.8125 65.8125 95.8125C66.6755 95.8125 67.375 96.5121 67.375 97.375C67.375 98.2379 66.6755 98.9375 65.8125 98.9375ZM47.0625 92.6875C47.0625 87.7335 50.3581 83.5542 54.875 82.2089V69.25H61.125V82.2089C65.6418 83.5541 68.9375 87.7335 68.9375 92.6875H47.0625Z" fill="white"/>
</g>
<defs>
<clipPath id="clip0_84_1202">
<rect width="50" height="50" fill="white" transform="translate(33 63)"/>
</clipPath>
</defs>
</svg>
