<svg width="36" height="36" viewBox="0 0 36 36" fill="none" xmlns="http://www.w3.org/2000/svg">
<g clip-path="url(#clip0_259_13)">
<path d="M26.5143 3.375C32.0579 3.375 36 8.81879 36 13.1383L35.997 13.9519C35.9717 16.3177 35.7339 18.0811 33.5079 21.1932C31.4545 24.064 26.4173 27.9559 24.7658 29.1949L24.1577 29.6427C23.8366 29.8675 22.5305 30.781 21.375 31.5802L20.6375 32.0795C20.5091 32.1649 20.3792 32.2506 20.2493 32.3358C19.1416 33.0624 17.4846 33.3703 15.7328 32.2671L14.9284 31.7664L14.625 31.5802C11.9527 29.9461 9.47495 28.0522 5.76795 24.8854C2.06094 21.7186 0 17.4579 0 13.1383C0 8.81879 3.94208 3.375 9.48569 3.375C13.0546 3.375 15.5571 4.72743 16.8871 5.69094C17.12 5.85964 17.3169 6.01641 17.4773 6.15192C18.1955 6.65944 17.7986 6.66199 18.5357 6.14089C18.6951 6.0068 18.8896 5.85247 19.1187 5.68673L19.4467 5.45839C20.8412 4.52401 23.2248 3.375 26.5143 3.375V3.375ZM26.5143 5.625C24.033 5.625 22.0068 6.3744 20.4375 7.50972L20.2764 7.62917L19.9845 7.86244L19.6682 8.10601L19.6058 8.15815C19.4851 8.2593 19.4149 8.31468 19.2866 8.39749C18.9361 8.62381 18.5361 8.77545 18.0282 8.78195C17.5075 8.78862 17.0883 8.63813 16.725 8.40678C16.6346 8.34925 16.5716 8.30414 16.5031 8.2496L16.2186 8.01785L16.0254 7.87074C15.8884 7.75503 15.7355 7.63507 15.5671 7.51305C13.9976 6.37606 11.9699 5.625 9.48569 5.625C5.68373 5.625 2.25 9.51375 2.25 13.1383C2.25 16.8033 4.02881 20.4405 7.2294 23.1747L8.50916 24.2578C11.5076 26.7693 13.5997 28.3159 15.7988 29.6606L16.5729 30.1384C16.6956 30.2149 16.8152 30.2898 16.9318 30.3632C17.7329 30.8677 18.4262 30.8408 19.0153 30.4544L19.5898 30.0735L20.5919 29.3856L22.9608 27.733L23.3214 27.4656C23.5741 27.2768 23.8489 27.0686 24.1417 26.8435L24.4403 26.6128C25.5984 25.7142 26.7559 24.7701 27.8305 23.8293C28.5006 23.2427 29.1166 22.6761 29.6664 22.1375C30.5426 21.279 31.2277 20.5135 31.6778 19.8842L32.0584 19.3412C33.5401 17.1748 33.75 16.13 33.75 13.1383C33.75 9.51375 30.3163 5.625 26.5143 5.625V5.625Z" fill="black"/>
</g>
<defs>
<clipPath id="clip0_259_13">
<rect width="36" height="36" fill="white"/>
</clipPath>
</defs>
</svg>
