<svg width="36" height="36" viewBox="0 0 36 36" fill="none" xmlns="http://www.w3.org/2000/svg">
<g clip-path="url(#clip0_259_17)">
<path fill-rule="evenodd" clip-rule="evenodd" d="M33.5079 21.1932C35.9813 17.7353 36 15.9425 36 13.1383C36 8.81879 32.0579 3.375 26.5143 3.375C22.9506 3.375 20.4502 4.72349 19.1187 5.68673C18.8896 5.85247 18.6951 6.0068 18.5357 6.14089C17.7986 6.66199 18.1955 6.65944 17.4773 6.15192C17.3169 6.01641 17.12 5.85964 16.8871 5.69094C15.5571 4.72743 13.0546 3.375 9.48569 3.375C3.94208 3.375 0 8.81879 0 13.1383C0 17.4579 2.06094 21.7186 5.76795 24.8854C9.47495 28.0522 11.9527 29.9461 14.625 31.5802C15.0417 31.835 15.4092 32.0633 15.7328 32.2671C17.4846 33.3703 19.1416 33.0624 20.2493 32.3358C20.6388 32.0803 21.0293 31.8193 21.375 31.5802C22.7039 30.6611 24.2319 29.5908 24.2319 29.5908C24.2319 29.5908 31.0345 24.6512 33.5079 21.1932Z" fill="#FF5B8C"/>
</g>
<defs>
<clipPath id="clip0_259_17">
<rect width="36" height="36" fill="white"/>
</clipPath>
</defs>
</svg>
