<svg width="36" height="36" viewBox="0 0 36 36" fill="none" xmlns="http://www.w3.org/2000/svg">
<g clip-path="url(#clip0_293_433)">
<path d="M33.636 23.6713L35.9838 9.58436C36.103 8.869 35.5506 8.21749 34.8259 8.21749H8.35228L8.01534 4.37688C7.84926 2.551 6.34141 1.17407 4.50809 1.17407H1.17387C0.525586 1.174 0 1.69966 0 2.34794C0 2.99622 0.525586 3.52188 1.17394 3.52188H4.50816C5.11938 3.52188 5.62191 3.98088 5.67696 4.58585L7.63685 26.9276C7.80293 28.7535 9.31078 30.1304 11.1441 30.1304H12.7237C12.5935 30.4979 12.5218 30.8928 12.5218 31.3044C12.5218 33.2463 14.1017 34.8261 16.0436 34.8261C17.9854 34.8261 19.5653 33.2463 19.5653 31.3044C19.5653 30.8929 19.4937 30.4979 19.3634 30.1304H24.4628C24.3325 30.4979 24.2608 30.8928 24.2608 31.3044C24.2608 33.2463 25.8407 34.8261 27.7826 34.8261C29.7245 34.8261 31.3043 33.2463 31.3043 31.3044C31.3043 30.8929 31.2327 30.4979 31.1024 30.1304H32.4781C33.1264 30.1304 33.6521 29.6049 33.6521 28.9566C33.6521 28.3083 33.1265 27.7826 32.4781 27.7826H11.144C10.5327 27.7826 10.0302 27.3236 9.97516 26.7187L9.7939 24.6522H32.478C33.0519 24.6521 33.5417 24.2373 33.636 23.6713ZM27.7824 30.1304C28.4297 30.1304 28.9564 30.657 28.9564 31.3043C28.9564 31.9516 28.4297 32.4783 27.7824 32.4783C27.1351 32.4783 26.6085 31.9516 26.6085 31.3043C26.6085 30.657 27.1351 30.1304 27.7824 30.1304ZM16.0433 30.1304C16.6906 30.1304 17.2173 30.657 17.2173 31.3043C17.2173 31.9516 16.6906 32.4783 16.0433 32.4783C15.396 32.4783 14.8694 31.9516 14.8694 31.3043C14.8694 30.657 15.396 30.1304 16.0433 30.1304ZM26.6085 10.5653H33.4401L32.6575 15.2609H26.6085V10.5653ZM14.8695 22.3043H9.58802L9.17606 17.6087H14.8695V22.3043V22.3043ZM14.8695 15.2609H8.97012L8.55823 10.5653H14.8695V15.2609ZM24.2607 22.3043H17.2173V17.6087H24.2607V22.3043ZM24.2607 15.2609H17.2173V10.5653H24.2607V15.2609ZM31.4836 22.3043H26.6086V17.6087H32.2663L31.4836 22.3043Z" fill="black"/>
</g>
<defs>
<clipPath id="clip0_293_433">
<rect width="36" height="36" fill="white"/>
</clipPath>
</defs>
</svg>
