<?xml version="1.0" encoding="utf-8"?>
<!-- Generator: Adobe Illustrator 24.0.0, SVG Export Plug-In . SVG Version: 6.00 Build 0)  -->
<svg version="1.1" id="Layer_1" xmlns="http://www.w3.org/2000/svg" xmlns:xlink="http://www.w3.org/1999/xlink" x="0px" y="0px"
	 viewBox="0 0 36 36" style="enable-background:new 0 0 36 36;" xml:space="preserve">
<style type="text/css">
	.st0{fill:#19E2CA;}
</style>
<path class="st0" d="M30,4.5h-7C22.7,2,20.6,0,18,0s-4.7,2-5,4.5H6c-2.1,0-3.8,1.7-3.8,3.8c0,2.1,1.6,3.7,3.6,3.8v19.2
	c0,2.6,2.1,4.6,4.6,4.6h15.1c2.6,0,4.6-2.1,4.6-4.6V12.1c2-0.1,3.6-1.8,3.6-3.8C33.8,6.2,32.1,4.5,30,4.5z M18,2.4
	c1.3,0,2.3,0.9,2.6,2.1h-5.1C15.7,3.3,16.7,2.4,18,2.4z M27.8,31.4c0,1.3-1,2.3-2.3,2.3H10.4c-1.3,0-2.3-1-2.3-2.3V12.2
	c1,0,18.9,0,19.7,0V31.4z M30,9.8c-0.2,0-23.8,0-24,0c-0.8,0-1.5-0.7-1.5-1.5c0-0.8,0.7-1.5,1.5-1.5h24c0.8,0,1.5,0.7,1.5,1.5
	C31.5,9.1,30.8,9.8,30,9.8z"/>
<path class="st0" d="M18,30.8c0.7,0,1.2-0.5,1.2-1.2V16c0-0.7-0.5-1.2-1.2-1.2c-0.7,0-1.2,0.5-1.2,1.2v13.6
	C16.8,30.3,17.3,30.8,18,30.8z"/>
<path class="st0" d="M24.1,30.8c0.7,0,1.2-0.5,1.2-1.2V16c0-0.7-0.5-1.2-1.2-1.2c-0.7,0-1.2,0.5-1.2,1.2v13.6
	C22.9,30.3,23.4,30.8,24.1,30.8z"/>
<path class="st0" d="M11.9,30.8c0.7,0,1.2-0.5,1.2-1.2V16c0-0.7-0.5-1.2-1.2-1.2c-0.7,0-1.2,0.5-1.2,1.2v13.6
	C10.7,30.3,11.3,30.8,11.9,30.8z"/>
</svg>
