<svg width="36" height="36" viewBox="0 0 36 36" fill="none" xmlns="http://www.w3.org/2000/svg">
<path d="M29.9992 4.48088H22.9499C22.701 1.96881 20.576 0 17.9995 0C15.423 0 13.298 1.96881 13.0491 4.48088H5.99993C3.88484 4.48088 2.16406 6.20166 2.16406 8.31675C2.16406 10.368 3.78253 12.0482 5.80952 12.1478V31.3675C5.80952 33.9219 7.88763 36 10.442 36H25.5572C28.1115 36 30.1896 33.9219 30.1896 31.3675V12.1479C32.2166 12.0483 33.8351 10.3681 33.8351 8.31682C33.8351 6.20166 32.1143 4.48088 29.9992 4.48088ZM17.9995 2.35551C19.2749 2.35551 20.3399 3.27203 20.5717 4.48088H15.4273C15.6592 3.27203 16.7241 2.35551 17.9995 2.35551ZM27.8341 31.3676C27.8341 32.6231 26.8126 33.6446 25.5571 33.6446H10.4419C9.18638 33.6446 8.16495 32.6231 8.16495 31.3676V12.1527C9.12631 12.1527 27.0822 12.1527 27.8341 12.1527V31.3676ZM29.9992 9.79718C29.7536 9.79718 6.2087 9.79718 5.99993 9.79718C5.18367 9.79718 4.51957 9.13309 4.51957 8.31682C4.51957 7.50056 5.18367 6.83647 5.99993 6.83647H29.9992C30.8154 6.83647 31.4795 7.50056 31.4795 8.31682C31.4795 9.13309 30.8155 9.79718 29.9992 9.79718Z" fill="black"/>
<path d="M17.999 30.804C18.6495 30.804 19.1768 30.2767 19.1768 29.6262V15.9875C19.1768 15.337 18.6496 14.8097 17.999 14.8097C17.3486 14.8097 16.8213 15.337 16.8213 15.9875V29.6262C16.8213 30.2767 17.3486 30.804 17.999 30.804Z" fill="black"/>
<path d="M24.0781 30.804C24.7286 30.804 25.2559 30.2767 25.2559 29.6262V15.9875C25.2559 15.337 24.7286 14.8097 24.0781 14.8097C23.4277 14.8097 22.9004 15.337 22.9004 15.9875V29.6262C22.9004 30.2767 23.4277 30.804 24.0781 30.804Z" fill="black"/>
<path d="M11.9209 30.804C12.5714 30.804 13.0987 30.2767 13.0987 29.6262V15.9875C13.0987 15.337 12.5714 14.8097 11.9209 14.8097C11.2705 14.8097 10.7432 15.337 10.7432 15.9875V29.6262C10.7432 30.2767 11.2705 30.804 11.9209 30.804Z" fill="black"/>
</svg>
