<svg width="114" height="114" viewBox="0 0 114 114" fill="none" xmlns="http://www.w3.org/2000/svg">
<g clip-path="url(#clip0_84_1440)">
<path d="M108.3 99V33.8C108.6 33.6 109 33.4 109.2 33.1C109.8 32.3 110.1 31.4 110.1 30.4V19.2C110.1 18.2 109.7 17.1 109.2 16.3C108.9 16 108.6 15.8 108.3 15.6V7.6C108.3 6.5 107.5 5.7 106.4 5.7H93.1C92 5.7 91.2 6.5 91.2 7.6V15.7C90.1 16.4 89.3 17.6 89.3 19H70.3V17.1C70.3 16 69.5 15.2 68.4 15.2H64.6V11.1C66.8 10.3 68.4 8.3 68.4 5.7C68.4 2.5 65.9 0 62.7 0H36.1C32.9 0 30.4 2.5 30.4 5.7C30.4 8.3 32 10.3 34.2 11.1V15.2H30.4C29.3 15.2 28.5 16 28.5 17.1V32.3C28.5 33.4 29.3 34.2 30.4 34.2H34.2V36.1C25.6 40.7 19.8 48.6 17.8 57.7C17.7 57.9 17.6 58.1 17.6 58.3C17.3 60 17.1 61.7 17.1 63.4C17.1 63.5 17.1 63.5 17.1 63.6C17.1 63.9 17.1 64.3 17.1 64.6C17.1 82.5 31.5 96.9 49.4 96.9C49.7 96.9 50 96.9 50.2 96.9C67.7 96.5 81.7 82.2 81.7 64.6C81.7 52.6 75.2 41.8 64.6 36.1V34.2H68.4C69.5 34.2 70.3 33.4 70.3 32.3V30.4H89.3C89.3 31.8 90.1 33 91.2 33.7V98.8H7.6C3.4 98.8 0 102.2 0 106.4C0 110.6 3.4 114 7.6 114H47.5C48.1 114 48.5 113.8 48.8 113.4L52 110.2H63.8L67 113.4C67.4 113.8 67.8 114 68.3 114H106.3C110.5 114 113.9 110.6 113.9 106.4C114 102.9 111.6 99.9 108.3 99ZM93.1 28.5V20.9V19H106.4V30.4H93.1V28.5ZM95 9.5H104.5V15.2H95V9.5ZM36.1 3.8H62.7C63.8 3.8 64.6 4.6 64.6 5.7C64.6 6.8 63.8 7.6 62.7 7.6H36.1C35 7.6 34.2 6.8 34.2 5.7C34.2 4.6 35 3.8 36.1 3.8ZM32.3 19H36.1V30.4H32.3V19ZM20.9 64.6C20.9 64.4 20.9 64.2 20.9 64C20.9 62.7 21.1 61.5 21.2 60.1C21.2 60 21.2 60 21.2 59.9C27.1 74.9 36.6 70.6 46.1 62.2C54.3 70.6 67.6 77 77.3 67.9C77.5 67.7 77.5 67.7 77.7 67.5C77.4 70.9 76.5 74 75.1 77C71.3 84.9 64 90.8 55.1 92.6C54.9 92.6 54.7 92.7 54.5 92.7H54.4C54.2 92.7 54 92.8 53.8 92.8H53.7C53.5 92.8 53.3 92.9 53.2 92.9C53.1 92.9 53.1 92.9 53 92.9C52.8 92.9 52.7 92.9 52.5 93C52.4 93 52.4 93 52.3 93C52.1 93 52 93 51.8 93C51.7 93 51.6 93 51.6 93C51.4 93 51.3 93 51.1 93C51 93 50.9 93 50.9 93C50.7 93 50.6 93 50.4 93C50.3 93 50.3 93 50.2 93C50 93 49.7 93 49.5 93C33.6 93.1 20.9 80.4 20.9 64.6ZM61.9 38.9C71.1 43.5 77 52.2 77.8 62.3C76.2 60.1 75.3 59.3 73.4 57.4C63.5 48 51.1 57.3 48.6 59.2C44.2 63.2 30.4 76.7 22.5 54.9C24.9 48 30 42.3 36.8 38.9C37.6 38.5 37.9 37.9 37.9 37.2V34.2C39 34.2 39.8 33.4 39.8 32.3V17.1C39.8 16 39 15.2 37.9 15.2V11.4H60.7V15.2C59.6 15.2 58.8 16 58.8 17.1V32.3C58.8 33.4 59.6 34.2 60.7 34.2V37.2C60.8 38 61.2 38.8 61.9 38.9ZM66.5 30.4H62.7V19H66.5V20.9V28.5V30.4ZM70.3 26.6V22.8H89.3V26.6H70.3ZM95 34.2H104.5V98.8H95V34.2ZM106.4 110.2H69.2L66 107C65.6 106.6 65.2 106.4 64.7 106.4H51.3C50.7 106.4 50.3 106.6 50 107L46.8 110.2H7.6C5.5 110.2 3.8 108.5 3.8 106.4C3.8 104.3 5.5 102.6 7.6 102.6H93.1H106.4C108.5 102.6 110.2 104.3 110.2 106.4C110.2 108.5 108.5 110.2 106.4 110.2Z" fill="#19E2CA"/>
<path d="M19 57.8999C22.3 52.9999 26.2 67.4 28.4 67.8C32.7 68.4 33.7 68.3999 35.4 67.8999C42.2 65.7999 42.1 65.4999 46.7 61.6999C48.1 60.4999 62.6 73.1999 70.5 71.0999C77.1 69.2999 79.5 62.4999 80.8 63.2999C82.3 64.0999 80.1 72.8 75.2 80.3C73.1 83.5 70.4 87.5999 65.2 90.7999C56 96.2999 46.3 94.3999 43.5 93.7999C41.1 93.2999 34 91.5999 28 85.4C23.8 81.0999 22.2 76.5999 20.8 72.5999C18.4 65.6999 16.8 61.1999 19 57.8999Z" fill="#19E2CA"/>
</g>
<defs>
<clipPath id="clip0_84_1440">
<rect width="114" height="114" fill="white"/>
</clipPath>
</defs>
</svg>
