<svg width="39" height="39" viewBox="0 0 39 39" fill="none" xmlns="http://www.w3.org/2000/svg">
<path d="M34.8148 4.06882C32.887 2.59911 30.7596 1.85376 28.4918 1.85376C25.6305 1.85376 22.5396 3.07502 19.4999 5.39736C16.4602 3.07502 13.3694 1.85376 10.508 1.85376C8.24022 1.85376 6.11287 2.59911 4.18501 4.06882C1.36434 6.21948 -0.0431227 8.93342 0.00100629 12.1351C0.152767 23.0986 17.9563 36.0353 18.714 36.5806L19.4999 37.1462L20.2858 36.5806C21.0437 36.0353 38.8473 23.0986 38.9989 12.1351C39.043 8.93342 37.6355 6.21948 34.8148 4.06882ZM27.5954 26.7316C24.2994 30.0466 20.9734 32.6851 19.4999 33.8089C18.0265 32.6851 14.7005 30.0468 11.4044 26.7316C5.75751 21.052 2.74472 15.9912 2.69162 12.0964C2.65969 9.762 3.68201 7.83611 5.81671 6.20854C7.26489 5.10424 8.84331 4.54437 10.508 4.54437C13.6586 4.54437 16.6678 6.50614 18.6373 8.15183L19.4999 8.8726L20.3626 8.15183C22.3321 6.50614 25.3413 4.54437 28.4918 4.54437C30.1565 4.54437 31.735 5.10424 33.1832 6.20854C35.3178 7.83611 36.3402 9.762 36.3082 12.0964C36.2551 15.9914 33.2422 21.052 27.5954 26.7316Z" fill="white"/>
</svg>
